# xmcd CD database file
#
# Track frame offsets:
#	182
#	5505
#	29517
#	56762
#	77865
#	99655
#	103570
#	144100
#	160087
#	176765
#	193692
#	197467
#	221567
#	236775
#	258745
#	266892
#	295645
#
# Disc length: 4142 seconds
#
# Revision: 7
# Processed by: cddbd v1.4PL0 Copyright (c) Steve Scherf et al.
# Submitted via: CdAid 2001.05.15.01
#
DISCID=f6102c11
DTITLE=Poe - Haunted
DYEAR=2000
DGENRE=Rock
TTITLE0=Exploration B
TTITLE1=Haunted
TTITLE2=Control
TTITLE3=Terrible Thought
TTITLE4=Walk The Walk
TTITLE5=Terrified Heart
TTITLE6=Wild
TTITLE7=5&1/2 Minute Hallway
TTITLE8=Not A Virgin
TTITLE9=Hey Pretty
TTITLE10=Dear Johnny
TTITLE11=Could've Gone Mad
TTITLE12=Lemon Meringue
TTITLE13=Spanish Doll
TTITLE14=House Of Leaves
TTITLE15=Amazed
TTITLE16=If You Were Here
EXTD=YEAR 2000
EXTT0=
EXTT1=
EXTT2=
EXTT3=
EXTT4=
EXTT5=
EXTT6=
EXTT7=
EXTT8=
EXTT9=
EXTT10=
EXTT11=
EXTT12=
EXTT13=
EXTT14=
EXTT15=
EXTT16=
PLAYORDER=
